PathFileType	4	(X/Y/Z)	 s08c0403.trc
DataRate	CameraRate	NumFrames	NumMarkers	Units	OrigDataRate	OrigDataStartFrame	OrigNumFrames
200	200	5	50	mm	200	751	2000
Frame#	Time	racr			lacr			c7			jug			rlel			rdr			llel			ldr			s2			lic			ric			lasi			rasi			rpsi			lpsi			rgt			lgt			rth1			rth2			rth3			rth4			rlfc			rmfc			rsh1			rsh2			rsh3			rsh4			rlmal			rmmal			rcal			rtoe			rmt5			lth1			lth2			lth4			lth3			llfc			lmfc			llmal			lmmal			lcal			lmt5			lsh1			lsh2			lsh3			lsh4			ltoe			SBIKE			LBIKE			RBIKE			
		X1	Y1	Z1	X2	Y2	Z2	X3	Y3	Z3	X4	Y4	Z4	X5	Y5	Z5	X6	Y6	Z6	X7	Y7	Z7	X8	Y8	Z8	X9	Y9	Z9	X10	Y10	Z10	X11	Y11	Z11	X12	Y12	Z12	X13	Y13	Z13	X14	Y14	Z14	X15	Y15	Z15	X16	Y16	Z16	X17	Y17	Z17	X18	Y18	Z18	X19	Y19	Z19	X20	Y20	Z20	X21	Y21	Z21	X22	Y22	Z22	X23	Y23	Z23	X24	Y24	Z24	X25	Y25	Z25	X26	Y26	Z26	X27	Y27	Z27	X28	Y28	Z28	X29	Y29	Z29	X30	Y30	Z30	X31	Y31	Z31	X32	Y32	Z32	X33	Y33	Z33	X34	Y34	Z34	X35	Y35	Z35	X36	Y36	Z36	X37	Y37	Z37	X38	Y38	Z38	X39	Y39	Z39	X40	Y40	Z40	X41	Y41	Z41	X42	Y42	Z42	X43	Y43	Z43	X44	Y44	Z44	X45	Y45	Z45	X46	Y46	Z46	X47	Y47	Z47	X48	Y48	Z48	X49	Y49	Z49	X50	Y50	Z50	
751	3.7550	812.679773	1420.570319	-102.906380	801.134558	1336.761537	-447.600021	793.225164	1452.164816	-280.578865	740.800755	1302.015888	-248.272506	698.968317	1197.463661	45.388379	767.548045	930.678761	-48.828001	617.667266	1127.657656	-561.001830	747.960880	932.299189	-434.330171	237.313196	1253.186731	-165.219919	364.511855	1227.408673	-351.531743	432.377486	1245.466688	-39.386692	396.403653	1188.262324	-312.034495	438.201038	1180.409896	-75.379186	283.847489	1289.350124	-120.795921	263.394713	1293.320673	-214.511927	349.709406	1126.687764	8.857205	295.018208	1127.956608	-365.707947	431.231668	972.768071	-10.513592	484.706255	904.634072	-29.870556	496.437417	819.499501	-41.943712	513.640268	920.195133	-46.221774	521.088379	711.651212	-67.308514	484.506794	716.184312	-174.156329	402.403763	657.315298	-30.683644	344.026073	591.989247	-49.994050	262.438888	563.166516	-50.167051	361.237960	571.966425	-82.481677	154.289781	506.842531	-52.403692	179.125403	506.401374	-142.040252	100.851872	564.681183	-101.107034	192.766719	278.788279	-104.655196	134.328789	353.225409	-37.171512	359.152568	1008.884211	-387.334213	421.246992	948.151512	-395.824720	453.045696	966.411605	-391.239173	444.505395	862.195440	-398.757899	493.106094	742.399248	-389.358556	502.072598	711.622432	-285.797637	324.454927	356.180648	-394.326338	371.554579	377.896998	-324.887772	253.295847	346.386027	-356.164193	440.655972	243.636538	-419.868831	442.977834	623.478790	-413.346169	429.529167	539.854715	-399.735922	376.540590	469.432600	-400.306075	452.431945	533.320820	-367.640406	527.905422	256.409116	-352.683702	-197.564660	923.420386	-225.001985	-5.886454	83.429224	-427.014720	-8.831252	80.608945	-28.919793	
752	3.7600	812.910828	1420.113317	-99.725960	800.058754	1338.615189	-444.957893	793.500157	1452.739859	-276.506014	739.917895	1302.837698	-245.002553	697.345450	1196.782674	48.174280	767.536252	930.740765	-48.790370	618.710810	1128.461977	-558.943440	748.753365	932.046835	-435.053677	236.027796	1251.852924	-168.080392	366.671775	1225.706370	-352.516204	429.783939	1245.933849	-40.199191	397.363026	1184.307320	-313.781770	437.670717	1180.040527	-76.137058	282.275362	1288.347957	-123.661194	263.417628	1291.083555	-217.945320	347.301132	1126.788463	7.085249	295.630504	1123.431841	-366.597965	432.978775	974.026893	-10.679541	487.898869	907.440550	-30.855392	501.010023	822.467152	-43.736724	516.472223	923.718845	-46.956858	527.920934	716.071125	-69.522037	491.346766	720.478009	-176.164848	408.564004	663.527428	-32.445560	349.789290	598.935266	-50.454326	267.141345	571.573409	-51.398644	364.356170	577.627670	-87.069417	158.227689	517.086488	-53.034375	183.084443	516.554801	-142.796305	104.323489	574.822729	-101.448404	197.805389	289.383509	-104.757656	139.144609	363.645478	-37.257554	358.034820	1002.885327	-387.478827	418.797997	940.782009	-395.013726	450.678401	957.929326	-390.372287	439.978356	854.255786	-396.809199	486.511664	734.928410	-386.899250	493.929206	704.417805	-283.229968	321.344668	347.288025	-394.815463	368.181027	368.767316	-325.202344	250.438707	338.433646	-356.964058	436.632998	232.978523	-419.567105	437.141100	615.782793	-411.618372	424.492557	531.902183	-398.586638	372.270305	460.984043	-399.994001	447.128848	525.533527	-366.309394	523.905191	244.621177	-352.031802	-197.544143	923.289284	-224.964630	-5.902393	83.402823	-427.005084	-8.832858	80.779849	-28.739912	
753	3.7650	813.244780	1419.217418	-96.422113	798.993264	1340.701058	-442.393143	793.901383	1453.101798	-272.370627	739.048273	1303.467193	-241.837426	695.555182	1195.889248	50.109262	767.417442	930.826413	-48.665763	619.745192	1129.472958	-556.679330	749.804518	931.879246	-435.369026	235.347447	1250.389317	-171.577208	368.968314	1224.011622	-353.483240	427.090761	1246.823645	-40.088009	398.321976	1180.783731	-315.214535	433.657464	1179.410903	-77.676232	281.797081	1286.361499	-127.735591	263.439027	1289.029089	-221.568372	344.586186	1127.024180	5.491087	296.489516	1119.279726	-367.633455	434.436767	976.407299	-12.116178	490.998406	910.656774	-31.997757	506.403310	826.082634	-44.734238	519.555534	927.791030	-47.352810	534.597742	720.804859	-71.559707	498.301292	725.099279	-178.114459	414.751323	670.057301	-34.179174	354.953265	606.230993	-51.846648	271.973002	580.059142	-52.564003	370.868782	585.365316	-85.145322	162.339656	527.100030	-53.905400	187.353733	526.372136	-143.622306	108.040806	584.649579	-101.871364	203.734488	300.093514	-104.918727	144.553043	373.844014	-37.355586	357.225305	997.442913	-387.784454	416.215650	933.515923	-394.272399	448.728865	949.934449	-389.048863	435.132687	846.402576	-394.931481	479.431012	727.149497	-384.058157	484.916896	697.297635	-281.241860	317.606335	338.710986	-395.365514	364.273823	360.075713	-325.421477	247.015414	330.754013	-357.694774	431.968236	222.710445	-419.238880	430.593791	608.289763	-410.124397	418.837547	524.247151	-397.683229	367.389588	452.674307	-399.689692	441.251051	517.940108	-365.171624	519.156366	233.153202	-351.422403	-197.598551	923.235511	-225.043842	-5.889270	83.374978	-426.998618	-8.856686	80.750383	-28.710556	
754	3.7700	813.692703	1417.899928	-92.948433	797.179371	1342.098584	-437.298515	794.187544	1452.797061	-267.868586	737.595000	1303.695193	-237.951231	694.003281	1194.871591	52.125320	767.196372	930.863850	-48.505192	620.885003	1130.619728	-554.388069	750.930577	931.960489	-436.047939	234.742274	1249.024185	-175.323276	371.403600	1222.330025	-354.428653	424.146576	1247.420979	-40.934547	399.369495	1177.416092	-316.623238	431.631561	1180.143391	-77.764918	279.151760	1286.048190	-130.853673	263.620876	1287.119524	-225.334827	341.284716	1127.092298	3.918184	297.609108	1115.649229	-368.776700	435.792914	978.563853	-13.289829	494.152687	914.029638	-32.476259	511.414638	830.032353	-46.115979	522.203140	931.769001	-47.971260	541.220141	725.918642	-73.273103	507.431410	729.095784	-178.723953	421.203885	676.598460	-35.708533	360.251379	613.534435	-53.229630	277.075221	588.372478	-53.843179	376.182716	593.193388	-85.388093	167.108726	536.877870	-54.763861	191.925103	535.722468	-144.407889	112.061167	594.059471	-102.522293	210.354368	310.423830	-104.996200	150.576498	383.735133	-37.568347	356.195850	992.114406	-388.189576	413.459251	926.612604	-393.522066	446.372091	942.219889	-388.122044	430.251405	839.528679	-393.944466	471.809923	719.724647	-381.678911	474.807555	690.359356	-279.837406	313.297753	330.406723	-395.718179	359.535087	351.661903	-325.622294	242.945283	323.367978	-358.343810	426.623845	212.817460	-418.983501	423.229127	601.010935	-409.142100	412.517934	516.604729	-396.767341	361.901572	444.556514	-399.389403	434.693865	511.755041	-366.395366	513.763867	221.921388	-350.882020	-197.656805	923.182386	-225.058434	-5.896604	83.338214	-427.008219	-8.902264	80.504743	-28.861333	
755	3.7750	814.184416	1416.241913	-89.544221	795.951503	1344.496618	-434.660690	794.793921	1452.977026	-263.616562	736.465286	1304.284405	-235.070324	692.622152	1193.710114	54.207811	766.842333	930.891246	-48.343638	622.035164	1132.034832	-552.066259	752.156507	932.134710	-436.825186	234.004663	1247.765329	-179.177286	373.979756	1220.667175	-355.348243	421.044864	1247.978413	-41.989017	400.557823	1174.428315	-317.615552	429.595744	1181.091891	-77.857497	277.617994	1285.684259	-134.293181	264.025947	1285.777498	-229.379458	339.177058	1127.972890	2.588591	299.038580	1112.488167	-370.112708	437.129279	981.052673	-13.981857	497.048886	918.033904	-32.745710	516.157520	834.269663	-47.192186	524.887721	936.185618	-48.108174	547.778739	731.399668	-74.746973	514.631831	734.361590	-180.306101	426.804823	683.918081	-37.691442	365.756618	620.910922	-54.582691	282.402513	596.573519	-54.920308	381.589044	600.238376	-86.488845	172.293143	546.291678	-55.598360	197.278562	545.292463	-146.030712	116.448876	603.064257	-102.994789	217.662246	320.691970	-105.028250	157.257636	393.294929	-37.649631	355.060825	987.215343	-388.674476	410.537018	920.173083	-392.901068	443.836378	934.879193	-387.150292	424.847925	832.207773	-392.227831	463.528764	712.639275	-379.426972	465.564900	683.414099	-277.740175	308.276007	322.585771	-396.116385	354.242712	343.842312	-325.766744	238.371079	316.547652	-358.956692	420.644734	203.154356	-418.707563	415.427842	593.792188	-408.178012	405.646094	509.325220	-396.001414	355.933272	436.738816	-399.261097	427.608869	504.729040	-365.439674	507.697260	211.190103	-350.376146	-197.682863	923.150447	-224.990283	-5.915307	83.341846	-426.974658	-8.919697	80.512172	-28.833479	
